# xmcd
#
# Track frame offsets:
#	150
#	14756
#	27655
#	42039
#	56746
#	68777
#	82017
#	94682
#	105599
#	119460
#	133618
#	149071
#	160585
#	175596
#	190924
#	206348
#	219284
#	231434
#	245013
#	258857
#
# Disc length: 3652 seconds
#
# Revision: 0
# Processed by: cddbd v1.5.2PL0 Copyright (c) Steve Scherf et al.
# Submitted via: audiograbber 1.83.01
#
DISCID=200e4214
DTITLE=—борник - 101 Songs That Won World War II CD4 - Pennsylvania 6-5000
DYEAR=1900
DGENRE=
TTITLE0=Glenn Miller - Pennsylvania --5000
TTITLE1=Vera Lynn - When You Wish Upon A Star
TTITLE2=Bob Eberly and Helen O'Connell - Tangerine
TTITLE3=Al Bowlly - South Of The Border
TTITLE4=Bill Schallen and Skeets Herfurt - Deep In The Heart Of Texas
TTITLE5=Dinah Shore - You'd Be So Nice To Come Home To
TTITLE6=George Formby - Our Seargant Major
TTITLE7=The Song Spinners - IN in On A Wing And A Prayer
TTITLE8=Skip Nelson and The Modernaires - That Old Blacl Magic
TTITLE9=Leslie "Hutch" Hutchinson - The Nearness Of You
TTITLE10=The Four King Sisters - In The Mood
TTITLE11=Carroll Gibbons - Im Going To get Lit Up
TTITLE12=The Ink Spots - Ev'ry Night About This Time
TTITLE13=The Mills Brothers - You Always Hurt The One You love
TTITLE14=Helen Forrest and Dick Haymes - Long Ago And far Away
TTITLE15=Bing Crosby - I'llBe Seeing You
TTITLE16=Louis Jordan - Caldonia
TTITLE17=Helen Forrest - This Is It
TTITLE18=Dick Haymes - The More I see You
TTITLE19=Vera Lynn - When They Sound The Last All Clear
EXTD=
EXTT0=
EXTT1=
EXTT2=
EXTT3=
EXTT4=
EXTT5=
EXTT6=
EXTT7=
EXTT8=
EXTT9=
EXTT10=
EXTT11=
EXTT12=
EXTT13=
EXTT14=
EXTT15=
EXTT16=
EXTT17=
EXTT18=
EXTT19=
PLAYORDER=
